<svg width="1024" height="1024" viewBox="0 0 1024 1024" fill="none" xmlns="http://www.w3.org/2000/svg">
<g clip-path="url(#clip0_2_24)">
<path d="M512 1024C794.77 1024 1024 794.77 1024 512C1024 229.23 794.77 0 512 0C229.23 0 0 229.23 0 512C0 794.77 229.23 1024 512 1024Z" fill="#F25227"/>
<path d="M701.516 726.115C697.789 728.057 693.713 728.804 689.477 728.804C570.786 728.795 452.095 728.808 333.404 728.764C327.382 728.762 321.747 727.331 317.398 722.793C315.824 721.15 315.019 719.265 315.019 717.038C315.017 676.953 315.017 639.786 315.022 599.701C315.022 599.257 315.085 598.815 315.149 597.973C375.026 635.207 440.04 655.147 510.831 656.258C581.622 657.37 647.307 639.705 708.331 603.907C708.331 605.194 708.331 606.065 708.331 606.936C708.331 644.18 708.279 678.508 708.392 715.752C708.407 720.907 705.705 723.933 701.516 726.115ZM316.99 378.971C349.911 379.015 381.143 379.025 414.064 378.954C416.263 378.95 416.135 380.02 416.135 381.465C416.119 429.687 416.122 474.159 416.122 522.381C416.122 523.027 416.113 523.672 416.125 524.317C416.179 527.229 417.217 528.246 420.25 528.252C428.662 528.269 440.031 528.259 448.443 528.259C449.635 528.259 450.829 528.287 452.02 528.25C454.645 528.166 455.688 527.12 455.768 524.53C455.786 523.949 455.772 523.368 455.772 522.787C455.772 474.694 455.772 430.351 455.772 382.259C455.772 381.296 455.772 380.333 455.772 379.133C456.591 379.085 457.286 379.009 457.982 379.009C494.612 379.003 528.71 379.023 565.34 378.954C567.486 378.951 567.608 379.819 567.607 381.471C567.573 429.821 567.58 474.422 567.58 522.773C567.58 527.702 568.162 528.259 573.304 528.259C582.048 528.259 593.324 528.261 602.068 528.258C605.929 528.256 606.807 527.385 606.807 523.557C606.808 475.205 606.807 430.605 606.807 382.253C606.807 381.292 606.807 380.33 606.807 379.003C607.878 379.003 608.655 379.003 609.432 379.003C641.955 379.003 673.213 379.003 705.736 379.004C708.323 379.004 708.33 379.009 708.33 381.541C708.332 440.737 708.323 499.517 708.37 558.714C708.372 560.415 707.769 561.41 706.386 562.341C694.778 570.159 682.817 577.409 670.334 583.822C655.508 591.44 640.161 597.902 624.316 603.224C606.422 609.235 588.082 613.585 569.418 616.557C562.213 617.704 554.915 618.339 547.639 618.991C541.404 619.549 535.144 619.925 528.887 620.152C521.751 620.411 514.599 620.658 507.466 620.464C500.225 620.269 492.994 619.607 485.77 619.013C473.812 618.029 461.935 616.471 450.192 614C438.243 611.485 426.406 608.602 414.759 604.937C400.003 600.293 385.672 594.664 371.73 588.084C352.198 578.866 333.816 567.806 316.544 555.01C315.748 554.42 315.08 553.111 315.079 552.136C315.01 494.942 315.022 438.162 314.991 380.968C314.99 379.484 315.382 378.969 316.99 378.971ZM322.302 298.624C325.702 296.946 329.402 296.204 333.217 296.204C452.165 296.195 571.113 296.186 690.061 296.229C695.876 296.231 701.3 297.68 705.619 301.869C707.462 303.656 708.353 305.736 708.342 308.267C708.31 315.755 708.333 329.492 708.33 336.98C708.329 339.491 708.322 339.497 705.716 339.497C641.01 339.498 576.304 339.498 511.598 339.498C447.091 339.498 382.583 339.5 318.076 339.492C314.671 339.492 315.03 339.845 315.022 336.463C315.004 329.621 315.235 316.52 314.948 309.689C314.714 304.114 317.705 300.893 322.302 298.624ZM747.936 512.579C747.936 442.413 747.941 372.246 747.914 302.078C747.914 300.105 747.84 298.072 747.379 296.166C744.764 285.36 739.065 276.43 730.182 269.573C719.04 260.974 706.292 257.002 692.214 257.002C571.817 257 451.421 256.994 331.024 257.032C327.484 257.033 323.894 257.219 320.412 257.806C308.852 259.759 298.414 264.303 289.883 272.351C280.256 281.432 274.996 292.517 275 305.913C275.035 443.659 275.019 581.406 275.039 719.153C275.04 721.734 275.016 724.367 275.499 726.883C277.525 737.449 282.625 746.456 290.805 753.504C302.345 763.448 315.998 768.002 331.287 768C451.549 767.987 571.812 768.005 692.075 767.944C696.472 767.941 700.967 767.653 705.249 766.737C718.894 763.82 730.687 757.609 739.159 746.301C744.787 738.791 748.016 730.505 748 720.89C747.881 651.454 747.936 582.016 747.936 512.579Z" fill="white"/>
</g>
<defs>
<clipPath id="clip0_2_24">
<rect width="1024" height="1024" fill="white"/>
</clipPath>
</defs>
</svg>
